<mxfile host="app.diagrams.net" modified="2023-11-24T15:05:16.726Z" agent="Mozilla/5.0 (Windows NT 10.0; Win64; x64) AppleWebKit/537.36 (KHTML, like Gecko) Chrome/118.0.0.0 Safari/537.36 OPR/104.0.0.0" version="22.1.3" etag="BXgDRBDSpaLwonoCl6vQ" type="github">
  <diagram name="PÃ¡gina-1" id="3nG_9WZDGErUgZEkYBPL">
    <mxGraphModel>
      <root>
        <mxCell id="0" />
        <mxCell id="1" parent="0" />
      </root>
    </mxGraphModel>
  </diagram>
</mxfile>
